# xmcd
#
# Track frame offsets: 
#        150
#        16830
#        34427
#        52261
#        68520
#        86258
#        113171
#        129181
#        147689
#        177000
#
# Disc length: 2581 seconds
#
# Revision: 0
# Processed by: cddbd v1.5.2PL0 Copyright (c) Steve Scherf et al.
# Submitted via: ExactAudioCopy v1.3
#
DISCID=830a130a
DTITLE=Brandon Santini - Songs of Love, Money, and Miser
DYEAR=2011
DGENRE=Harmonica Blues
TTITLE0=You Ruined Poor Me
TTITLE1=What Can I Do
TTITLE2=Beggin' Baby
TTITLE3=Leaving New York
TTITLE4=Tomcattin'
TTITLE5=Sweet Maggie
TTITLE6=I Wanna Boogie With You
TTITLE7=Down To New Orleans
TTITLE8=Evil Woman
TTITLE9=Ida Lee
EXTD=
EXTT0=
EXTT1=
EXTT2=
EXTT3=
EXTT4=
EXTT5=
EXTT6=
EXTT7=
EXTT8=
EXTT9=
PLAYORDER=
